# xmcd
#
# Track frame offsets: 
#        150
#        16982
#        36614
#        50171
#        65239
#        75282
#        87140
#        103574
#        120922
#        136708
#        154899
#        167562
#
# Disc length: 2357 seconds
#
# Revision: 1
# Processed by: cddbd v1.5.2PL0 Copyright (c) Steve Scherf et al.
# Submitted via: ExactAudioCopy v0.95b3
#
DISCID=9309330c
DTITLE=Jack Bon - Mixed Blues
DYEAR=2003
DGENRE=Blues
TTITLE0=Yellow Moon
TTITLE1=My Thing
TTITLE2=I Ain't Got no Cash
TTITLE3=Old Man
TTITLE4=Yicky Yicky Yeah
TTITLE5=Kiddio
TTITLE6=Sh'e an Angel Now
TTITLE7=A Better Man
TTITLE8=Life Is Good
TTITLE9=Come to My Rescue
TTITLE10=My Baby's Eyes
TTITLE11=Living the Blues
EXTD=
EXTT0=
EXTT1=
EXTT2=
EXTT3=
EXTT4=
EXTT5=
EXTT6=
EXTT7=
EXTT8=
EXTT9=
EXTT10=
EXTT11=
PLAYORDER=
